{
  "accessors": [
    {
      "bufferView": 2,
      "componentType": 5126,
      "count": 9724,
      "max": [
        34.47695541381836,
        12.481254577636719,
        67.1166763305664
      ],
      "min": [
        -31.289382934570313,
        -28.01671600341797,
        0.09288100153207779
      ],
      "type": "VEC3"
    },
    {
      "bufferView": 2,
      "byteOffset": 116688,
      "componentType": 5126,
      "count": 9724,
      "max": [
        0.9991836547851563,
        0.9998917579650879,
        1.0
      ],
      "min": [
        -0.9995826482772827,
        -0.9980316162109375,
        -1.0
      ],
      "type": "VEC3"
    },
    {
      "bufferView": 1,
      "componentType": 5126,
      "count": 9724,
      "max": [
        0.9955329895019531,
        0.997048020362854
      ],
      "min": [
        0.8775230050086975,
        0.2615649998188019
      ],
      "type": "VEC2"
    },
    {
      "bufferView": 0,
      "componentType": 5125,
      "count": 46248,
      "type": "SCALAR"
    },
    {
      "bufferView": 2,
      "byteOffset": 233376,
      "componentType": 5126,
      "count": 8832,
      "max": [
        47.65412521362305,
        44.392276763916016,
        63.47513961791992
      ],
      "min": [
        -44.39226531982422,
        -44.392276763916016,
        -1.497622013092041
      ],
      "type": "VEC3"
    },
    {
      "bufferView": 2,
      "byteOffset": 339360,
      "componentType": 5126,
      "count": 8832,
      "max": [
        1.0,
        1.0,
        0.9999997615814209
      ],
      "min": [
        -1.0,
        -1.0,
        -0.9999997615814209
      ],
      "type": "VEC3"
    },
    {
      "bufferView": 1,
      "byteOffset": 77792,
      "componentType": 5126,
      "count": 8832,
      "max": [
        0.9998549818992615,
        0.9794719815254211
      ],
      "min": [
        0.18221600353717804,
        0.020527999848127365
      ],
      "type": "VEC2"
    },
    {
      "bufferView": 0,
      "byteOffset": 184992,
      "componentType": 5125,
      "count": 40248,
      "type": "SCALAR"
    },
    {
      "bufferView": 2,
      "byteOffset": 445344,
      "componentType": 5126,
      "count": 9617,
      "max": [
        64.73394775390625,
        9.066991806030273,
        57.48839569091797
      ],
      "min": [
        -35.23402404785156,
        -52.564693450927734,
        3.5512468814849854
      ],
      "type": "VEC3"
    },
    {
      "bufferView": 2,
      "byteOffset": 560748,
      "componentType": 5126,
      "count": 9617,
      "max": [
        0.9981685280799866,
        0.9999886155128479,
        0.9997295141220093
      ],
      "min": [
        -0.9986408948898315,
        -0.9999893307685852,
        -0.999871015548706
      ],
      "type": "VEC3"
    },
    {
      "bufferView": 1,
      "byteOffset": 148448,
      "componentType": 5126,
      "count": 9617,
      "max": [
        0.9875149726867676,
        0.8335390090942383
      ],
      "min": [
        0.863044023513794,
        0.4299370050430298
      ],
      "type": "VEC2"
    },
    {
      "bufferView": 0,
      "byteOffset": 345984,
      "componentType": 5125,
      "count": 53436,
      "type": "SCALAR"
    },
    {
      "bufferView": 2,
      "byteOffset": 676152,
      "componentType": 5126,
      "count": 9872,
      "max": [
        58.65355682373047,
        12.735780715942383,
        74.42497253417969
      ],
      "min": [
        -13.030204772949219,
        -51.013607025146484,
        2.228287935256958
      ],
      "type": "VEC3"
    },
    {
      "bufferView": 2,
      "byteOffset": 794616,
      "componentType": 5126,
      "count": 9872,
      "max": [
        0.99932861328125,
        0.9995390176773071,
        1.0
      ],
      "min": [
        -0.9994303584098816,
        -0.9996955394744873,
        -1.0
      ],
      "type": "VEC3"
    },
    {
      "bufferView": 1,
      "byteOffset": 225384,
      "componentType": 5126,
      "count": 9872,
      "max": [
        0.9875149726867676,
        1.0
      ],
      "min": [
        0.030863000079989433,
        0.003387999953702092
      ],
      "type": "VEC2"
    },
    {
      "bufferView": 0,
      "byteOffset": 559728,
      "componentType": 5125,
      "count": 27822,
      "type": "SCALAR"
    },
    {
      "bufferView": 2,
      "byteOffset": 913080,
      "componentType": 5126,
      "count": 7591,
      "max": [
        64.5497817993164,
        52.909217834472656,
        100.98429870605469
      ],
      "min": [
        -59.36550521850586,
        -51.79562759399414,
        9.6873197555542
      ],
      "type": "VEC3"
    },
    {
      "bufferView": 2,
      "byteOffset": 1004172,
      "componentType": 5126,
      "count": 7591,
      "max": [
        0.9992984533309937,
        0.9998642206192017,
        0.999814510345459
      ],
      "min": [
        -0.9992984533309937,
        -0.9998642206192017,
        -0.999814510345459
      ],
      "type": "VEC3"
    },
    {
      "bufferView": 1,
      "byteOffset": 304360,
      "componentType": 5126,
      "count": 7591,
      "max": [
        0.9875149726867676,
        0.5593129992485046
      ],
      "min": [
        0.863044023513794,
        0.36756399273872375
      ],
      "type": "VEC2"
    },
    {
      "bufferView": 0,
      "byteOffset": 671016,
      "componentType": 5125,
      "count": 37056,
      "type": "SCALAR"
    },
    {
      "bufferView": 2,
      "byteOffset": 1095264,
      "componentType": 5126,
      "count": 6097,
      "max": [
        70.96442413330078,
        70.82442474365234,
        109.60897827148438
      ],
      "min": [
        -70.96441650390625,
        -70.82440948486328,
        -32.3198356628418
      ],
      "type": "VEC3"
    },
    {
      "bufferView": 2,
      "byteOffset": 1168428,
      "componentType": 5126,
      "count": 6097,
      "max": [
        1.0,
        1.0,
        1.0
      ],
      "min": [
        -1.0,
        -1.0,
        -1.0
      ],
      "type": "VEC3"
    },
    {
      "bufferView": 1,
      "byteOffset": 365088,
      "componentType": 5126,
      "count": 6097,
      "max": [
        0.943382978439331,
        0.9941629767417908
      ],
      "min": [
        0.0044479998759925365,
        0.007007999811321497
      ],
      "type": "VEC2"
    },
    {
      "bufferView": 0,
      "byteOffset": 819240,
      "componentType": 5125,
      "count": 35880,
      "type": "SCALAR"
    },
    {
      "bufferView": 2,
      "byteOffset": 1241592,
      "componentType": 5126,
      "count": 2560,
      "max": [
        43.95305252075195,
        43.95305633544922,
        1.0562570095062256
      ],
      "min": [
        -43.95305633544922,
        -43.95306396484375,
        -1.0562570095062256
      ],
      "type": "VEC3"
    },
    {
      "bufferView": 2,
      "byteOffset": 1272312,
      "componentType": 5126,
      "count": 2560,
      "max": [
        1.0,
        1.0,
        1.0
      ],
      "min": [
        -1.0,
        -1.0,
        -1.0
      ],
      "type": "VEC3"
    },
    {
      "bufferView": 1,
      "byteOffset": 413864,
      "componentType": 5126,
      "count": 2560,
      "max": [
        0.9699829816818237,
        0.9699829816818237
      ],
      "min": [
        0.030016999691724777,
        0.030016999691724777
      ],
      "type": "VEC2"
    },
    {
      "bufferView": 0,
      "byteOffset": 962760,
      "componentType": 5125,
      "count": 7680,
      "type": "SCALAR"
    }
  ],
  "asset": {
    "extras": {
      "author": "Joseph Stanley (https://sketchfab.com/tanjoerine)",
      "license": "CC-BY-4.0 (http://creativecommons.org/licenses/by/4.0/)",
      "source": "https://sketchfab.com/3d-models/galax-tea-c3f5fc0760144f6f85ed61e67195c683",
      "title": "Galax-tea"
    },
    "generator": "Sketchfab-13.79.0",
    "version": "2.0"
  },
  "bufferViews": [
    {
      "buffer": 0,
      "byteLength": 993480,
      "name": "floatBufferViews",
      "target": 34963
    },
    {
      "buffer": 0,
      "byteLength": 434344,
      "byteOffset": 993480,
      "byteStride": 8,
      "name": "floatBufferViews",
      "target": 34962
    },
    {
      "buffer": 0,
      "byteLength": 1303032,
      "byteOffset": 1427824,
      "byteStride": 12,
      "name": "floatBufferViews",
      "target": 34962
    }
  ],
  "buffers": [
    {
      "byteLength": 2730856,
      "uri": "ltf.bin"
    }
  ],
  "extensionsUsed": [
    "KHR_materials_unlit"
  ],
  "images": [
    {
      "uri": "textures/initialShadingGroup_baseColor.jpeg"
    },
    {
      "uri": "textures/lambert3SG_baseColor.png"
    },
    {
      "uri": "textures/lambert3SG_emissive.jpeg"
    },
    {
      "uri": "textures/lambert4SG_baseColor.jpeg"
    }
  ],
  "materials": [
    {
      "extensions": {
        "KHR_materials_unlit": {}
      },
      "name": "initialShadingGroup",
      "pbrMetallicRoughness": {
        "baseColorTexture": {
          "index": 0
        },
        "metallicFactor": 0.0
      }
    },
    {
      "emissiveFactor": [
        1.0,
        1.0,
        1.0
      ],
      "emissiveTexture": {
        "index": 0
      },
      "extensions": {
        "KHR_materials_unlit": {}
      },
      "name": "lambert2SG",
      "pbrMetallicRoughness": {
        "baseColorFactor": [
          0.24649772156231567,
          0.07915423285086598,
          0.07915423285086598,
          1.0
        ],
        "metallicFactor": 0.0
      }
    },
    {
      "alphaMode": "BLEND",
      "emissiveFactor": [
        1.0,
        1.0,
        1.0
      ],
      "emissiveTexture": {
        "index": 2
      },
      "extensions": {
        "KHR_materials_unlit": {}
      },
      "name": "lambert3SG",
      "pbrMetallicRoughness": {
        "baseColorTexture": {
          "index": 1
        },
        "metallicFactor": 0.0
      }
    },
    {
      "doubleSided": true,
      "extensions": {
        "KHR_materials_unlit": {}
      },
      "name": "lambert4SG",
      "pbrMetallicRoughness": {
        "baseColorTexture": {
          "index": 3
        },
        "metallicFactor": 0.0
      }
    }
  ],
  "meshes": [
    {
      "name": "Object_0",
      "primitives": [
        {
          "attributes": {
            "NORMAL": 1,
            "POSITION": 0,
            "TEXCOORD_0": 2
          },
          "indices": 3,
          "material": 0,
          "mode": 4
        }
      ]
    },
    {
      "name": "Object_1",
      "primitives": [
        {
          "attributes": {
            "NORMAL": 5,
            "POSITION": 4,
            "TEXCOORD_0": 6
          },
          "indices": 7,
          "material": 0,
          "mode": 4
        }
      ]
    },
    {
      "name": "Object_2",
      "primitives": [
        {
          "attributes": {
            "NORMAL": 9,
            "POSITION": 8,
            "TEXCOORD_0": 10
          },
          "indices": 11,
          "material": 1,
          "mode": 4
        }
      ]
    },
    {
      "name": "Object_3",
      "primitives": [
        {
          "attributes": {
            "NORMAL": 13,
            "POSITION": 12,
            "TEXCOORD_0": 14
          },
          "indices": 15,
          "material": 1,
          "mode": 4
        }
      ]
    },
    {
      "name": "Object_4",
      "primitives": [
        {
          "attributes": {
            "NORMAL": 17,
            "POSITION": 16,
            "TEXCOORD_0": 18
          },
          "indices": 19,
          "material": 1,
          "mode": 4
        }
      ]
    },
    {
      "name": "Object_5",
      "primitives": [
        {
          "attributes": {
            "NORMAL": 21,
            "POSITION": 20,
            "TEXCOORD_0": 22
          },
          "indices": 23,
          "material": 2,
          "mode": 4
        }
      ]
    },
    {
      "name": "Object_6",
      "primitives": [
        {
          "attributes": {
            "NORMAL": 25,
            "POSITION": 24,
            "TEXCOORD_0": 26
          },
          "indices": 27,
          "material": 3,
          "mode": 4
        }
      ]
    }
  ],
  "nodes": [
    {
      "children": [
        1
      ],
      "matrix": [
        1.0,
        0.0,
        0.0,
        0.0,
        0.0,
        2.220446049250313e-16,
        -1.0,
        0.0,
        0.0,
        1.0,
        2.220446049250313e-16,
        0.0,
        0.0,
        0.0,
        0.0,
        1.0
      ],
      "name": "Sketchfab_model"
    },
    {
      "children": [
        2,
        3,
        4,
        5,
        6,
        7,
        8
      ],
      "name": "STAR.obj.cleaner.materialmerger.gles"
    },
    {
      "mesh": 0,
      "name": "Object_2"
    },
    {
      "mesh": 1,
      "name": "Object_3"
    },
    {
      "mesh": 2,
      "name": "Object_4"
    },
    {
      "mesh": 3,
      "name": "Object_5"
    },
    {
      "mesh": 4,
      "name": "Object_6"
    },
    {
      "mesh": 5,
      "name": "Object_7"
    },
    {
      "mesh": 6,
      "name": "Object_8"
    }
  ],
  "samplers": [
    {
      "magFilter": 9729,
      "minFilter": 9987,
      "wrapS": 10497,
      "wrapT": 10497
    }
  ],
  "scene": 0,
  "scenes": [
    {
      "name": "Sketchfab_Scene",
      "nodes": [
        0
      ]
    }
  ],
  "textures": [
    {
      "sampler": 0,
      "source": 0
    },
    {
      "sampler": 0,
      "source": 1
    },
    {
      "sampler": 0,
      "source": 2
    },
    {
      "sampler": 0,
      "source": 3
    }
  ]
}
